<?xml version="1.0" encoding="utf-8"?>
<!-- Generator: Adobe Illustrator 24.2.1, SVG Export Plug-In . SVG Version: 6.00 Build 0)  -->
<svg version="1.1" id="Layer_1" xmlns="http://www.w3.org/2000/svg" xmlns:xlink="http://www.w3.org/1999/xlink" x="0px" y="0px"
	 viewBox="0 0 1364.4 350.7" style="enable-background:new 0 0 1364.4 350.7;" xml:space="preserve">
<style type="text/css">
	.st0{display:none;fill:#FF0000;stroke:#000000;stroke-miterlimit:10;}
	.st1{display:none;}
	.st2{display:inline;fill:#FFFFFF;}
	.st3{fill:#FFFFFF;}
	.st4{fill:none;stroke:#FFFFFF;stroke-width:11;stroke-miterlimit:10;}
</style>
<rect x="-77.7" y="-80.8" class="st0" width="1083.5" height="552"/>
<g class="st1">
	<path class="st2" d="M257.9,188.7l-3.1,7.9h-0.7c0.1-0.5,0.2-1.1,0.2-1.9c0-0.7-0.3-1.1-0.7-1.3c-0.5-0.2-1.3-0.3-2.3-0.3h-17.1
		v56.1c0,2.3,0.2,3.9,0.6,4.7c0.4,0.9,0.9,1.4,1.5,1.6s1.7,0.3,3.1,0.3v0.7h-17.8v-0.7c2.2-0.1,3.6-0.6,4.2-1.3
		c0.6-0.7,0.9-2.2,0.9-4.4v-57.1h-16.4c-1.7,0-2.7,0.1-3.3,0.3c-0.5,0.2-0.8,0.7-0.8,1.4c0,0.4,0.1,1,0.4,1.8h-0.7l-3.1-7.9h0.7
		c0.5,1.1,1.1,1.7,1.6,1.9s1.6,0.3,3.4,0.3h43.6c1.7,0,3-0.1,3.7-0.3c0.8-0.2,1.3-0.9,1.7-1.9C257.3,188.7,257.9,188.7,257.9,188.7z
		"/>
	<path class="st2" d="M309.6,223.9h-36v25.2c0,2.4,0.1,3.9,0.3,4.5s0.6,1.2,1.3,1.6c0.6,0.4,1.7,0.7,3.2,0.7v0.7h-17V256
		c3.1,0.2,4.6-1.3,4.6-4.5v-52.8c0-3-0.3-4.9-0.7-5.7s-1.8-1.3-3.9-1.3V191h17v0.7c-1.9,0.1-3.1,0.5-3.8,1.1c-0.6,0.6-1,1.8-1,3.6
		V222h36v-23.5c0-2.7-0.2-4.5-0.7-5.5s-1.8-1.4-3.9-1.4V191h16.8v0.7c-1.3,0-2.3,0.2-3,0.5s-1.1,0.8-1.3,1.4c-0.2,0.7-0.4,2.3-0.4,5
		v50.4c0,2.6,0.1,4.2,0.4,4.8c0.2,0.6,0.6,1.2,1.2,1.6c0.6,0.4,1.6,0.6,3,0.6v0.7H305V256c1.8,0,3-0.4,3.6-1.1
		c0.6-0.7,0.9-2.7,0.9-6L309.6,223.9L309.6,223.9z"/>
	<path class="st2" d="M329,191.7V191h41.3v9.1h-0.7c-0.9-3.4-1.6-5.3-2.3-5.9c-0.6-0.6-2.1-0.9-4.5-0.9h-21.6v29.4h20.1
		c2,0,3.3-0.2,3.8-0.6c0.5-0.4,0.8-0.9,0.9-1.6h0.7v6.2h-0.7c-0.1-0.9-0.5-1.4-1-1.7s-1.6-0.4-3-0.4h-20.6v20.3
		c0,3.1,0.3,5.3,0.9,6.6c0.6,1.4,1.5,2.2,2.7,2.5s3.1,0.5,5.6,0.5h11.6c3.7,0,6-0.1,7-0.4s1.9-0.8,2.6-1.5c0.7-0.8,1.3-2.4,1.6-4.9
		h0.7v9H329v-0.7c1.5-0.1,2.7-0.4,3.5-0.9c0.8-0.5,1.2-1.8,1.2-3.8v-52.9c0-2.4-0.2-4.1-0.6-5.1C332.6,192.2,331.2,191.7,329,191.7z
		"/>
	<path class="st2" d="M401,191.2h6l-32.7,65.4h-6L401,191.2z"/>
	<path class="st2" d="M404,191.7V191h30.1c7.7,0,13.7,0.6,18.2,1.8c4.4,1.2,8.3,3.1,11.6,5.7s5.9,5.9,7.8,9.9
		c1.9,4,2.9,8.5,2.9,13.5c0,4.8-1,9.5-3,14.1c-2,4.6-4.7,8.6-8.2,11.9c-3.5,3.3-7.1,5.6-10.9,6.9c-3.8,1.2-9.7,1.9-17.7,1.9H404
		v-0.7h0.8c1.6,0,2.7-0.6,3.2-1.9c0.5-1.3,0.8-3.6,0.8-7v-47.8c0-3.6-0.3-5.7-0.9-6.5C407.2,192,405.9,191.7,404,191.7z
		 M426.3,192.4h-10.1v50.9c0,3.2,0.5,5.6,1.6,7.1c1.1,1.6,2.9,2.7,5.5,3.4c2.6,0.7,6.1,1.1,10.6,1.1c12.3,0,20.9-3.2,25.9-9.5
		c5-6.3,7.5-13.2,7.5-20.6c0-8.8-3.4-16.4-10.2-22.8C450.3,195.6,440,192.4,426.3,192.4z"/>
	<path class="st2" d="M537.6,194.3l2.5,6.9h-0.7c-6.3-6.3-13.8-9.5-22.4-9.5c-8.9,0-16.2,2.7-21.7,8c-5.5,5.3-8.3,11.8-8.3,19.3
		c0,4.7,1.2,10,3.7,16.1c2.5,6.1,6.3,11,11.6,14.9c5.3,3.9,11.7,5.9,19.2,5.9c4.9,0,9.8-0.8,14.5-2.4c4.7-1.6,8.3-3.7,10.6-6.4
		l0.6,0.2l-4.6,7c-7.4,1.6-12.3,2.6-14.5,2.9c-2.2,0.3-5.2,0.4-8.9,0.4c-13.8,0-23.6-3.2-29.5-9.6s-8.9-14-8.9-22.9
		c0-6,1.5-11.8,4.6-17.3c3.1-5.5,7.4-9.9,13.2-13.1c5.7-3.2,12.3-4.8,19.7-4.8c3.7,0,6.9,0.3,9.6,1s4.9,1.4,6.7,2.1l2.9,1.1
		C537.5,194.2,537.5,194.3,537.6,194.3z"/>
</g>
<g>
	<path class="st3" d="M573.6,87.8l-8.5,21.5h-1.8c0.3-1.3,0.5-3,0.5-5.2c0-1.8-0.7-3-2-3.6c-1.3-0.5-3.4-0.8-6.3-0.8h-46.4V252
		c0,6.3,0.5,10.6,1.5,12.9c1,2.3,2.4,3.7,4.1,4.3c1.7,0.6,4.5,0.9,8.4,0.9v1.8H475v-1.8c6-0.4,9.8-1.6,11.4-3.5
		c1.5-1.9,2.3-6,2.3-12.1V99.7h-44.5c-4.5,0-7.4,0.3-8.8,0.8c-1.4,0.5-2.1,1.8-2.1,3.9c0,1.1,0.3,2.7,1,4.8h-1.8L424,87.8h1.8
		c1.4,2.9,2.9,4.7,4.3,5.3c1.4,0.6,4.4,0.9,9.1,0.9h118.1c4.7,0,8-0.3,10.1-0.9c2.1-0.6,3.6-2.4,4.5-5.3
		C571.9,87.8,573.6,87.8,573.6,87.8z"/>
	<path class="st3" d="M713.7,183.1h-97.8v68.4c0,6.4,0.3,10.5,0.9,12.3c0.6,1.8,1.7,3.3,3.4,4.5c1.7,1.2,4.5,1.8,8.7,1.8v1.8h-46
		v-1.8c8.4,0.6,12.6-3.5,12.6-12.2V114.8c0-8.1-0.7-13.3-2-15.5c-1.3-2.2-4.9-3.4-10.6-3.6v-1.8h46v1.8c-5.1,0.3-8.5,1.3-10.3,2.9
		c-1.8,1.6-2.7,4.9-2.7,9.9v69.6h97.8v-63.7c0-7.2-0.6-12.2-1.9-14.8c-1.2-2.6-4.7-3.9-10.4-3.9v-1.8h45.4v1.8c-3.6,0-6.3,0.4-8,1.3
		c-1.8,0.8-3,2.1-3.6,3.9c-0.6,1.8-0.9,6.3-0.9,13.5v136.6c0,7,0.3,11.4,0.9,13.1c0.7,1.7,1.8,3.2,3.4,4.3c1.6,1.1,4.3,1.7,8.2,1.7
		v1.8h-45.4v-1.8c4.9,0,8.2-1,9.8-3c1.7-2,2.5-7.4,2.5-16.3L713.7,183.1L713.7,183.1z"/>
	<path class="st3" d="M766.3,96v-2.1h111.9v24.5h-1.8c-2.4-9.1-4.4-14.5-6.1-16.1c-1.7-1.6-5.7-2.4-12.1-2.4h-58.7v79.9h54.5
		c5.4,0,8.8-0.5,10.3-1.5c1.4-1,2.2-2.5,2.3-4.4h1.8v16.8h-1.8c-0.4-2.3-1.4-3.9-2.8-4.7c-1.5-0.8-4.3-1.2-8.3-1.2h-56v55
		c0,8.3,0.8,14.3,2.3,18c1.5,3.7,4,6,7.3,6.9s8.4,1.4,15.1,1.4h31.4c10,0,16.4-0.4,19.1-1s5.1-2,7.1-4.1c1.9-2,3.4-6.5,4.5-13.4h1.8
		v24.4H766.3V270c4.1-0.2,7.2-1,9.4-2.4c2.1-1.3,3.2-4.8,3.2-10.3V113.8c0-6.5-0.6-11.1-1.7-13.8C776,97.3,772.4,96,766.3,96z"/>
	<path class="st3" d="M961.7,94.6h16.4l-88.8,177.4h-16.4L961.7,94.6z"/>
	<path class="st3" d="M969.6,95.8v-1.8h81.7c20.8,0,37.2,1.6,49.2,4.9c12,3.3,22.5,8.4,31.5,15.4s16,16,21.3,26.9
		c5.2,10.9,7.9,23.1,7.9,36.6c0,13-2.7,25.7-8.2,38.2c-5.5,12.5-12.8,23.3-22.2,32.4c-9.4,9.1-19.2,15.3-29.5,18.6
		c-10.4,3.3-26.4,5-48,5h-83.6v-1.8h2.2c4.3,0,7.2-1.8,8.6-5.3c1.4-3.5,2.1-9.8,2.1-19V116.3c0-9.7-0.8-15.5-2.5-17.5
		C978.3,96.8,974.8,95.8,969.6,95.8z M1030.2,97.7h-27.3v138.1c0,8.7,1.5,15.2,4.4,19.4c2.9,4.2,7.9,7.3,15,9.2
		c7.1,1.9,16.6,2.8,28.6,2.8c33.4,0,56.8-8.6,70.3-25.7c13.5-17.1,20.2-35.8,20.2-56c0-23.8-9.2-44.3-27.7-61.7
		C1095.3,106.4,1067.5,97.7,1030.2,97.7z"/>
	<path class="st3" d="M1331.9,102.9l6.6,18.8h-1.8c-17.2-17.2-37.5-25.7-60.8-25.7c-24.2,0-43.8,7.2-58.8,21.6
		c-14.9,14.4-22.4,31.9-22.4,52.3c0,12.6,3.3,27.2,10,43.6s17.1,29.9,31.5,40.5c14.3,10.6,31.7,15.9,52.1,15.9
		c13.4,0,26.5-2.1,39.3-6.5c12.9-4.3,22.4-10.1,28.7-17.3l1.6,0.5l-12.4,19.1c-20.1,4.3-33.2,6.9-39.2,7.7c-6,0.8-14,1.2-24.1,1.2
		c-37.3,0-64-8.7-80-25.9s-24.1-38-24.1-62c0-16.3,4.1-31.9,12.4-46.9s20.1-26.9,35.7-35.5c15.5-8.7,33.3-13,53.3-13
		c10,0,18.6,0.9,25.9,2.7s13.3,3.7,18.2,5.6l8,3C1331.7,102.7,1331.9,102.8,1331.9,102.9z"/>
</g>
<g>
	<path class="st3" d="M204.1,155.4c-0.2,0.4-0.3,0.7-0.5,1.1c9.5-7.1,19.9-12.1,31.4-14.9c0-0.1,0-0.2,0-0.2c-0.5,0-1,0-1.5,0
		c-7.5,0.1-14.9,0.7-22.3,1.5c-0.8,0.1-1.2,0.4-1.6,1.1C207.9,147.9,206,151.6,204.1,155.4z"/>
	<path class="st3" d="M227.4,51.4c-0.1-0.1-0.2-0.2-0.2-0.2c-1.9,1-3.8,1.9-5.6,2.9c-7.3,4.1-13.4,9.6-18.8,15.9
		c-6.8,7.9-12.3,16.8-16.8,26.2c-6.7,13.8-11.3,28.4-14.6,43.4c-0.1,0.3-0.1,0.6-0.2,1.1c0.5-0.1,0.9-0.1,1.3-0.2
		c6.9-1.2,13.9-2.2,20.9-2.8c0.9-0.1,1.4-0.4,1.8-1.2c3.5-7.7,7.1-15.3,10.5-23.1c8.1-18.6,15-37.6,20.4-57.1
		C226.5,54.5,226.9,52.9,227.4,51.4z"/>
	<path class="st3" d="M166,188.3c8.7-13.5,16.6-27.4,23.9-41.8c-7.1,1.3-14,3-20.8,5.1C167.6,156.5,165.1,186,166,188.3z"/>
	<path class="st3" d="M237.8,48.9c-0.3,4.4-0.9,8.8-1.6,13.1c-3.2,20.3-9.2,39.9-16.7,59c-1.9,4.8-4,9.6-6,14.4
		c-0.1,0.2-0.2,0.5-0.3,0.8c0.4,0,0.7,0.1,1,0.1c4.5,0.1,9,0.1,13.4,0.2c6.7,0.2,13.4,0.8,20.1,1.7c3.4,0.5,6.7,1,10.1,1.5
		c2.6,0.4,5.3,0.6,7.9,1.1c3.7,0.6,7.3,1.7,10.8,3c0.2,0.1,0.4,0.2,0.6,0.5c-0.8-0.1-1.7-0.2-2.5-0.4c-4.5-0.5-9-1.1-13.5-1.6
		c-2.8-0.3-5.6,0.2-8.3,0.8c-16.7,3.5-30.7,11.6-41.8,24.7c-4.8,5.6-8.3,11.9-10.1,19.1c-1.5,5.8-1.6,11.6,0.5,17.3
		c2.2,6,6.2,10.4,11.8,13.5c4,2.2,8.3,3.5,12.8,4.1c10.2,1.3,20-0.4,29.5-4.2c11.9-4.7,22.1-11.8,30.2-21.8c1.3-1.5,2.3-3.2,3.5-4.8
		c0,0.2,0,0.5,0,0.7c-0.3,1.2-0.5,2.5-0.9,3.7c-4.2,15.4-12.9,27.6-25.8,36.9c-9,6.4-19,10.5-29.9,12.1c-7.9,1.2-15.9,1-23.7-0.8
		c-2.1-0.5-4.3-1.4-6.2-2.5c-9.8-5.4-16.9-13.2-20.8-23.8c-2.2-5.9-3-12-2.5-18.2c0-0.2,0-0.3,0-0.7c-0.4,0.5-0.6,0.7-0.8,1
		c-3.8,5.4-7.5,10.8-11.4,16.2c-0.4,0.6-0.6,1.1-0.5,1.7c0.5,4.5,1,9.1,1.6,13.6c1.3,9,3.1,17.9,5.4,26.7c3.8,14.1,8.8,27.7,16,40.5
		c3.1,5.6,6.6,11,10.6,16c65.7-12,115.5-69.6,115.5-138.8C315.7,119.9,284,72.1,237.8,48.9z"/>
	<path class="st3" d="M151,163c0.2-1.6,0.3-3.2,0.4-5c-0.5,0.2-0.8,0.2-1,0.3c-13,5.4-25.3,12.1-36.5,20.8
		c-8.1,6.3-15.3,13.4-21.2,21.7c-3.9,5.5-6.5,11.5-7.6,18.2c-0.7,3.9-0.6,7.8-0.1,11.6c0.3,2,0.9,4,1.5,5.9c1.2,3.7,2.9,7.1,5.6,9.9
		c2.5,2.7,5.5,4.3,9.1,4.8c3.2,0.5,6.3-0.1,9.3-1.2c4.6-1.7,8.6-4.4,12.3-7.5c6.1-5.1,11.2-11.1,15.8-17.5c0.4-0.5,0.8-1,1.2-1.6
		c3.6-4.5,7.3-9,10.9-13.4c0.5-0.6,0.6-1.2,0.6-1.9c-0.2-2.5-0.5-5-0.6-7.4c-0.4-6.5-0.6-13-0.5-19.5
		C150.2,175.2,150.4,169.1,151,163z"/>
	<path class="st3" d="M193.7,313.3c-9-9.1-16.1-19.6-21.9-31c-7-13.6-12-28-15.5-42.9c-0.6-2.3-1-4.7-1.5-7
		c-0.1-0.2-0.1-0.5-0.3-0.9c-0.4,0.5-0.7,0.8-1.1,1.1c-6.4,7.1-13.6,13.1-22,17.8c-6.8,3.8-13.9,6.5-21.5,7.8
		c-7.3,1.2-14.6,1.3-21.8-0.6c-2.8-0.8-5.5-1.7-7.9-3.2c-8-4.7-13.5-11.3-16.2-20.3c-1.8-6-1.8-12-0.7-18.1
		c1.8-9.7,6.2-18.1,12.2-25.8c6-7.8,13.3-14.2,21.3-19.9c11.4-8.1,23.8-14.3,36.9-19.2c6-2.3,12.2-4.3,18.4-6
		c0.4-0.1,0.7-0.2,1.1-0.3c0.3-1.9,0.7-3.8,1-5.7c3.3-17.4,8.5-34.2,16.3-50.1c5.5-11.3,12.3-21.7,20.8-31
		c6.7-7.3,14.4-13.4,23.3-17.8c0.1-0.1,0.2-0.1,0.3-0.2c-12.8-3.8-26.3-5.9-40.4-5.9C96.7,34,33.5,97.2,33.5,175.2
		s63.2,141.1,141.1,141.1c7,0,13.9-0.5,20.6-1.5C194.7,314.3,194.2,313.8,193.7,313.3z"/>
</g>
<circle class="st4" cx="174.8" cy="175.4" r="166.8"/>
</svg>
