<?xml version="1.0" encoding="utf-8"?>
<!-- Generator: Adobe Illustrator 25.0.0, SVG Export Plug-In . SVG Version: 6.00 Build 0)  -->
<svg version="1.1" id="Layer_1" xmlns="http://www.w3.org/2000/svg" xmlns:xlink="http://www.w3.org/1999/xlink" x="0px" y="0px"
	 viewBox="0 0 350.7 350.7" style="enable-background:new 0 0 350.7 350.7;" xml:space="preserve">
<style type="text/css">
	.st0{opacity:0.8;}
	.st1{fill:#FFFFFF;}
	.st2{opacity:0.8;fill:none;stroke:#FFFFFF;stroke-width:11;stroke-miterlimit:10;}
</style>
<g class="st0">
	<path class="st1" d="M204.3,155.5c-0.2,0.4-0.3,0.7-0.5,1.1c9.5-7.1,19.9-12.1,31.4-14.9c0-0.1,0-0.2,0-0.2c-0.5,0-1,0-1.5,0
		c-7.5,0.1-14.9,0.7-22.3,1.5c-0.8,0.1-1.2,0.4-1.6,1.1C208.1,148,206.2,151.7,204.3,155.5z"/>
	<path class="st1" d="M227.6,51.5c-0.1-0.1-0.2-0.2-0.2-0.2c-1.9,1-3.8,1.9-5.6,2.9c-7.3,4.1-13.4,9.6-18.8,15.9
		c-6.8,7.9-12.3,16.8-16.8,26.2c-6.7,13.8-11.3,28.4-14.6,43.4c-0.1,0.3-0.1,0.6-0.2,1.1c0.5-0.1,0.9-0.1,1.3-0.2
		c6.9-1.2,13.9-2.2,20.9-2.8c0.9-0.1,1.4-0.4,1.8-1.2c3.5-7.7,7.1-15.3,10.5-23.1c8.1-18.6,15-37.6,20.4-57.1
		C226.7,54.6,227.1,53,227.6,51.5z"/>
	<path class="st1" d="M166.2,188.4c8.7-13.5,16.6-27.4,23.9-41.8c-7.1,1.3-14,3-20.8,5.1C167.8,156.6,165.3,186.1,166.2,188.4z"/>
	<path class="st1" d="M238,49c-0.3,4.4-0.9,8.8-1.6,13.1c-3.2,20.3-9.2,39.9-16.7,59c-1.9,4.8-4,9.6-6,14.4
		c-0.1,0.2-0.2,0.5-0.3,0.8c0.4,0,0.7,0.1,1,0.1c4.5,0.1,9,0.1,13.4,0.2c6.7,0.2,13.4,0.8,20.1,1.7c3.4,0.5,6.7,1,10.1,1.5
		c2.6,0.4,5.3,0.6,7.9,1.1c3.7,0.6,7.3,1.7,10.8,3c0.2,0.1,0.4,0.2,0.6,0.5c-0.8-0.1-1.7-0.2-2.5-0.4c-4.5-0.5-9-1.1-13.5-1.6
		c-2.8-0.3-5.6,0.2-8.3,0.8c-16.7,3.5-30.7,11.6-41.8,24.7c-4.8,5.6-8.3,11.9-10.1,19.1c-1.5,5.8-1.6,11.6,0.5,17.3
		c2.2,6,6.2,10.4,11.8,13.5c4,2.2,8.3,3.5,12.8,4.1c10.2,1.3,20-0.4,29.5-4.2c11.9-4.7,22.1-11.8,30.2-21.8c1.3-1.5,2.3-3.2,3.5-4.8
		c0,0.2,0,0.5,0,0.7c-0.3,1.2-0.5,2.5-0.9,3.7c-4.2,15.4-12.9,27.6-25.8,36.9c-9,6.4-19,10.5-29.9,12.1c-7.9,1.2-15.9,1-23.7-0.8
		c-2.1-0.5-4.3-1.4-6.2-2.5c-9.8-5.4-16.9-13.2-20.8-23.8c-2.2-5.9-3-12-2.5-18.2c0-0.2,0-0.3,0-0.7c-0.4,0.5-0.6,0.7-0.8,1
		c-3.8,5.4-7.5,10.8-11.4,16.2c-0.4,0.6-0.6,1.1-0.5,1.7c0.5,4.5,1,9.1,1.6,13.6c1.3,9,3.1,17.9,5.4,26.7c3.8,14.1,8.8,27.7,16,40.5
		c3.1,5.6,6.6,11,10.6,16c65.7-12,115.5-69.6,115.5-138.8C315.9,120,284.2,72.2,238,49z"/>
	<path class="st1" d="M151.2,163.1c0.2-1.6,0.3-3.2,0.4-5c-0.5,0.2-0.8,0.2-1,0.3c-13,5.4-25.3,12.1-36.5,20.8
		c-8.1,6.3-15.3,13.4-21.2,21.7c-3.9,5.5-6.5,11.5-7.6,18.2c-0.7,3.9-0.6,7.8-0.1,11.6c0.3,2,0.9,4,1.5,5.9c1.2,3.7,2.9,7.1,5.6,9.9
		c2.5,2.7,5.5,4.3,9.1,4.8c3.2,0.5,6.3-0.1,9.3-1.2c4.6-1.7,8.6-4.4,12.3-7.5c6.1-5.1,11.2-11.1,15.8-17.5c0.4-0.5,0.8-1,1.2-1.6
		c3.6-4.5,7.3-9,10.9-13.4c0.5-0.6,0.6-1.2,0.6-1.9c-0.2-2.5-0.5-5-0.6-7.4c-0.4-6.5-0.6-13-0.5-19.5
		C150.4,175.3,150.6,169.2,151.2,163.1z"/>
	<path class="st1" d="M193.9,313.4c-9-9.1-16.1-19.6-21.9-31c-7-13.6-12-28-15.5-42.9c-0.6-2.3-1-4.7-1.5-7
		c-0.1-0.2-0.1-0.5-0.3-0.9c-0.4,0.5-0.7,0.8-1.1,1.1c-6.4,7.1-13.6,13.1-22,17.8c-6.8,3.8-13.9,6.5-21.5,7.8
		c-7.3,1.2-14.6,1.3-21.8-0.6c-2.8-0.8-5.5-1.7-7.9-3.2c-8-4.7-13.5-11.3-16.2-20.3c-1.8-6-1.8-12-0.7-18.1
		c1.8-9.7,6.2-18.1,12.2-25.8c6-7.8,13.3-14.2,21.3-19.9c11.4-8.1,23.8-14.3,36.9-19.2c6-2.3,12.2-4.3,18.4-6
		c0.4-0.1,0.7-0.2,1.1-0.3c0.3-1.9,0.7-3.8,1-5.7c3.3-17.4,8.5-34.2,16.3-50.1c5.5-11.3,12.3-21.7,20.8-31
		c6.7-7.3,14.4-13.4,23.3-17.8c0.1-0.1,0.2-0.1,0.3-0.2c-12.8-3.8-26.3-5.9-40.4-5.9c-77.8-0.1-141,63.1-141,141.1
		s63.2,141.1,141.1,141.1c7,0,13.9-0.5,20.6-1.5C194.9,314.4,194.4,313.9,193.9,313.4z"/>
</g>
<circle class="st2" cx="174.8" cy="175.3" r="166.8"/>
</svg>
