<?xml version="1.0" encoding="utf-8"?>
<!-- Generator: Adobe Illustrator 25.0.0, SVG Export Plug-In . SVG Version: 6.00 Build 0)  -->
<svg version="1.1" id="Layer_1" xmlns="http://www.w3.org/2000/svg" xmlns:xlink="http://www.w3.org/1999/xlink" x="0px" y="0px"
	 viewBox="0 0 64 64" style="enable-background:new 0 0 64 64;" xml:space="preserve">
<style type="text/css">
	.st0{fill:#FFFFFF;}
</style>
<g id="Quotemarks-left">
	<path class="st0" d="M50.6,26.2c-0.1-1.4,0-5.2,3.6-10.4c0.3-0.4,0.2-0.9-0.1-1.3c-1.5-1.5-2.4-2.4-3-3.1c-0.8-0.9-1.2-1.3-1.8-1.8
		c-0.4-0.3-0.9-0.3-1.3,0c-6.3,5.5-13.4,16.9-12.3,30.8c0.6,8.2,6.6,14.1,14.2,14.1c7.8,0,14.2-6.4,14.2-14.2
		C64,32.8,58.1,26.7,50.6,26.2z M49.8,52.6c-6.5,0-11.7-5.2-12.2-12.3c0,0,0,0,0,0c-1.1-15.7,8.2-25.8,11-28.5
		c0.3,0.3,0.6,0.6,1,1.1c0.6,0.6,1.3,1.3,2.5,2.5c-4.4,6.8-3.6,11.6-3.2,12.3c0.2,0.3,0.5,0.6,0.9,0.6c6.7,0,12.2,5.5,12.2,12.2
		C62,47.1,56.5,52.6,49.8,52.6z"/>
	<path class="st0" d="M15.1,26.2c-0.1-1.4,0-5.2,3.6-10.4c0.3-0.4,0.2-0.9-0.1-1.3c-1.5-1.5-2.4-2.4-3-3.1c-0.8-0.9-1.2-1.3-1.8-1.8
		c-0.4-0.3-0.9-0.3-1.3,0C6.1,15.2-0.9,26.5,0.1,40.5v0c0.6,8.2,6.6,14.1,14.2,14.1c7.8,0,14.2-6.4,14.2-14.2
		C28.5,32.8,22.6,26.7,15.1,26.2z M14.3,52.6c-6.5,0-11.7-5.2-12.2-12.3v0c-1.1-15.7,8.2-25.9,11-28.5c0.3,0.3,0.6,0.6,1.1,1.1
		c0.6,0.6,1.3,1.3,2.5,2.5C12.2,22.1,13,27,13.4,27.7c0.2,0.3,0.5,0.6,0.9,0.6c6.7,0,12.2,5.5,12.2,12.2
		C26.5,47.1,21,52.6,14.3,52.6z"/>
</g>
</svg>
